<svg width="57" height="57" viewBox="0 0 57 57" fill="none" xmlns="http://www.w3.org/2000/svg">
<path d="M17.1 28.5C22.613 28.5 27.075 24.038 27.075 18.525C27.075 13.0121 22.613 8.55005 17.1 8.55005C11.587 8.55005 7.125 13.0121 7.125 18.525C7.125 24.038 11.587 28.5 17.1 28.5ZM23.94 31.35H23.2008C21.3483 32.2407 19.2909 32.775 17.1 32.775C14.9091 32.775 12.8606 32.2407 10.9992 31.35H10.26C4.59562 31.35 0 35.9457 0 41.6101V44.175C0 46.5352 1.91484 48.45 4.275 48.45H29.925C32.2852 48.45 34.2 46.5352 34.2 44.175V41.6101C34.2 35.9457 29.6044 31.35 23.94 31.35ZM42.75 28.5C47.4703 28.5 51.3 24.6704 51.3 19.95C51.3 15.2297 47.4703 11.4 42.75 11.4C38.0297 11.4 34.2 15.2297 34.2 19.95C34.2 24.6704 38.0297 28.5 42.75 28.5ZM47.025 31.35H46.6866C45.4486 31.7775 44.1394 32.0625 42.75 32.0625C41.3606 32.0625 40.0514 31.7775 38.8134 31.35H38.475C36.6581 31.35 34.9837 31.8755 33.5142 32.7216C35.6873 35.064 37.05 38.1722 37.05 41.6101V45.03C37.05 45.226 37.0055 45.413 36.9966 45.6H52.725C55.0852 45.6 57 43.6852 57 41.325C57 35.8121 52.538 31.35 47.025 31.35Z" fill="#8E8E8E"/>
</svg>
