<svg width="95" height="95" viewBox="0 0 95 95" fill="none" xmlns="http://www.w3.org/2000/svg">
<path d="M76 67.64V70.3C76 73.435 73.435 76 70.3 76H24.7C21.565 76 19 73.435 19 70.3V67.64C19 60.705 27.075 56.525 34.675 53.2C34.96 53.105 35.15 53.01 35.435 52.82C36.005 52.535 36.67 52.535 37.24 52.915C40.28 54.91 43.795 56.05 47.5 56.05C51.205 56.05 54.72 54.91 57.76 53.01C58.33 52.63 58.995 52.63 59.565 52.915C59.85 53.01 60.04 53.105 60.325 53.295C67.925 56.525 76 60.705 76 67.64Z" fill="#939393"/>
<path d="M47.5002 50.35C55.3178 50.35 61.6552 43.3321 61.6552 34.675C61.6552 26.0179 55.3178 19 47.5002 19C39.6826 19 33.3452 26.0179 33.3452 34.675C33.3452 43.3321 39.6826 50.35 47.5002 50.35Z" fill="#939393"/>
<path d="M84.312 70.38H77.508V77.364H72.756V70.38H65.952V65.988H72.756V59.004H77.508V65.988H84.312V70.38Z" fill="#939393"/>
<path d="M84.312 70.38V72.38H86.312V70.38H84.312ZM77.508 70.38V68.38H75.508V70.38H77.508ZM77.508 77.364V79.364H79.508V77.364H77.508ZM72.756 77.364H70.756V79.364H72.756V77.364ZM72.756 70.38H74.756V68.38H72.756V70.38ZM65.952 70.38H63.952V72.38H65.952V70.38ZM65.952 65.988V63.988H63.952V65.988H65.952ZM72.756 65.988V67.988H74.756V65.988H72.756ZM72.756 59.004V57.004H70.756V59.004H72.756ZM77.508 59.004H79.508V57.004H77.508V59.004ZM77.508 65.988H75.508V67.988H77.508V65.988ZM84.312 65.988H86.312V63.988H84.312V65.988ZM84.312 68.38H77.508V72.38H84.312V68.38ZM75.508 70.38V77.364H79.508V70.38H75.508ZM77.508 75.364H72.756V79.364H77.508V75.364ZM74.756 77.364V70.38H70.756V77.364H74.756ZM72.756 68.38H65.952V72.38H72.756V68.38ZM67.952 70.38V65.988H63.952V70.38H67.952ZM65.952 67.988H72.756V63.988H65.952V67.988ZM74.756 65.988V59.004H70.756V65.988H74.756ZM72.756 61.004H77.508V57.004H72.756V61.004ZM75.508 59.004V65.988H79.508V59.004H75.508ZM77.508 67.988H84.312V63.988H77.508V67.988ZM82.312 65.988V70.38H86.312V65.988H82.312Z" fill="#D9D9D9"/>
</svg>
