<svg width="22" height="22" viewBox="0 0 22 22" fill="none" xmlns="http://www.w3.org/2000/svg">
<g clip-path="url(#clip0_321_1043)">
<path d="M20.166 19.25H19.7076V18.7917C19.7076 18.1949 19.3235 17.6908 18.791 17.501V10.9157C19.3236 10.7259 19.7076 10.2218 19.7076 9.62501V9.16666H20.166C20.419 9.16666 20.6243 8.96132 20.6243 8.70831V7.33332H21.0827C21.2862 7.33332 21.4658 7.19857 21.5227 7.00331C21.5795 6.80806 21.5007 6.59816 21.3293 6.48816L11.2459 0.0715107C11.0955 -0.0238369 10.904 -0.0238369 10.7536 0.0715107L0.670283 6.48816C0.497935 6.59816 0.420033 6.80716 0.47688 7.00331C0.533728 7.19947 0.71338 7.33332 0.91688 7.33332H1.37519V8.70831C1.37519 8.96132 1.58053 9.16666 1.83353 9.16666H2.29188V9.62501C2.29188 10.2218 2.67598 10.7259 3.20853 10.9157V17.501C2.67594 17.6908 2.29188 18.1949 2.29188 18.7917V19.25H1.83353C1.07544 19.25 0.458533 19.8669 0.458533 20.625V21.5417C0.458533 21.7947 0.66388 22 0.91688 22H21.0835C21.3365 22 21.5419 21.7947 21.5419 21.5417V20.625C21.541 19.8669 20.924 19.25 20.166 19.25ZM7.99538 4.66036L10.7454 2.82701C10.8994 2.72436 11.1001 2.72436 11.2541 2.82701L14.0041 4.66036C14.1719 4.77221 14.247 4.98121 14.1884 5.17461C14.1297 5.36801 13.951 5.50001 13.7493 5.50001H8.24928C8.04763 5.50001 7.86888 5.36801 7.81018 5.17461C7.75153 4.98116 7.82763 4.77216 7.99538 4.66036ZM9.62428 17.501C9.09169 17.6908 8.70763 18.1949 8.70763 18.7917V19.25H6.87428V18.7917C6.87428 18.1949 6.49018 17.6908 5.95763 17.501V10.9157C6.49023 10.7259 6.87428 10.2218 6.87428 9.62501V9.16666H8.70763V9.62501C8.70763 10.2218 9.09173 10.7259 9.62428 10.9157V17.501ZM16.041 17.501C15.5084 17.6908 15.1243 18.1949 15.1243 18.7917V19.25H13.291V18.7917C13.291 18.1949 12.9069 17.6908 12.3743 17.501V10.9157C12.9069 10.7259 13.291 10.2218 13.291 9.62501V9.16666H15.1243V9.62501C15.1243 10.2218 15.5084 10.7259 16.041 10.9157V17.501Z" fill="#3E45FF"/>
</g>
<defs>
<clipPath id="clip0_321_1043">
<rect width="22" height="22" fill="white"/>
</clipPath>
</defs>
</svg>
