<svg width="33" height="34" viewBox="0 0 33 34" fill="none" xmlns="http://www.w3.org/2000/svg">
<path d="M27.2121 0.730469H5.78789C2.99063 0.730469 0.708984 3.08125 0.708984 5.96328V12.0594C0.708984 13.859 1.61777 15.5191 3.05508 16.4688C2.88105 17.0996 2.78437 17.757 2.78437 18.4344C2.78437 18.5473 0.889453 17.9363 0.708984 19.7891V31.9148C0.708984 32.6652 1.29551 33.2695 2.02383 33.2695H18.0469C18.7752 33.2695 19.3617 32.6652 19.3617 31.9148V19.7891C19.1941 17.9695 17.2863 18.5273 17.2863 18.4344C17.2863 18.0492 17.2541 17.6641 17.1961 17.2922H27.2121C30.0094 17.2922 32.291 14.9414 32.291 12.0594V5.96328C32.291 3.08125 30.0094 0.730469 27.2121 0.730469ZM16.732 30.5602H3.33867V21.1437H16.732V30.5602ZM5.42051 18.4344C5.49141 15.8645 7.53457 13.7992 10.0418 13.7992C12.549 13.7992 14.5922 15.8645 14.6631 18.4344H5.42051ZM29.6613 12.0594C29.6613 13.4473 28.5656 14.5828 27.2121 14.5828H16.1777C14.8887 12.5043 12.6006 11.0898 10.0354 11.0898C7.70215 11.0898 5.59453 12.252 4.26035 14.0316C3.69316 13.5602 3.33867 12.8363 3.33867 12.0594V5.96328C3.33867 4.57539 4.43438 3.43984 5.78789 3.43984H27.2121C28.5592 3.43984 29.6613 4.56875 29.6613 5.96328V12.0594Z" fill="#3E45FF"/>
<path d="M7.53457 7.65674H7.0834C6.35508 7.65674 5.76855 8.26103 5.76855 9.01143C5.76855 9.76182 6.35508 10.3661 7.0834 10.3661H7.53457C8.26289 10.3661 8.84941 9.76182 8.84941 9.01143C8.84941 8.26103 8.26289 7.65674 7.53457 7.65674Z" fill="#3E45FF"/>
<path d="M13.664 7.65674H13.2128C12.4845 7.65674 11.8979 8.26103 11.8979 9.01143C11.8979 9.76182 12.4845 10.3661 13.2128 10.3661H13.664C14.3923 10.3661 14.9788 9.76182 14.9788 9.01143C14.9788 8.26103 14.3923 7.65674 13.664 7.65674Z" fill="#3E45FF"/>
<path d="M19.787 7.65674H19.3358C18.6075 7.65674 18.021 8.26103 18.021 9.01143C18.021 9.76182 18.6075 10.3661 19.3358 10.3661H19.787C20.5153 10.3661 21.1019 9.76182 21.1019 9.01143C21.1019 8.26103 20.5153 7.65674 19.787 7.65674Z" fill="#3E45FF"/>
<path d="M25.9164 7.65674H25.4652C24.7369 7.65674 24.1504 8.26103 24.1504 9.01143C24.1504 9.76182 24.7369 10.3661 25.4652 10.3661H25.9164C26.6447 10.3661 27.2312 9.76182 27.2312 9.01143C27.2312 8.26103 26.6447 7.65674 25.9164 7.65674Z" fill="#3E45FF"/>
</svg>
