<svg width="33" height="34" viewBox="0 0 33 34" fill="none" xmlns="http://www.w3.org/2000/svg">
<path d="M27.2121 0.730469H5.78789C2.99063 0.730469 0.708984 3.08125 0.708984 5.96328V12.0594C0.708984 13.859 1.61777 15.5191 3.05508 16.4688C2.88105 17.0996 2.78437 17.757 2.78437 18.4344C2.78437 18.5473 0.889453 17.9363 0.708984 19.7891V31.9148C0.708984 32.6652 1.29551 33.2695 2.02383 33.2695H18.0469C18.7752 33.2695 19.3617 32.6652 19.3617 31.9148V19.7891C19.1941 17.9695 17.2863 18.5273 17.2863 18.4344C17.2863 18.0492 17.2541 17.6641 17.1961 17.2922H27.2121C30.0094 17.2922 32.291 14.9414 32.291 12.0594V5.96328C32.291 3.08125 30.0094 0.730469 27.2121 0.730469ZM16.732 30.5602H3.33867V21.1437H16.732V30.5602ZM5.42051 18.4344C5.49141 15.8645 7.53457 13.7992 10.0418 13.7992C12.549 13.7992 14.5922 15.8645 14.6631 18.4344H5.42051ZM29.6613 12.0594C29.6613 13.4473 28.5656 14.5828 27.2121 14.5828H16.1777C14.8887 12.5043 12.6006 11.0898 10.0354 11.0898C7.70215 11.0898 5.59453 12.252 4.26035 14.0316C3.69316 13.5602 3.33867 12.8363 3.33867 12.0594V5.96328C3.33867 4.57539 4.43438 3.43984 5.78789 3.43984H27.2121C28.5592 3.43984 29.6613 4.56875 29.6613 5.96328V12.0594Z" fill="#3E45FF"/>
</svg>
