<svg width="30" height="30" viewBox="0 0 30 30" fill="none" xmlns="http://www.w3.org/2000/svg">
<path fill-rule="evenodd" clip-rule="evenodd" d="M17.8661 5.36611C17.5 5.73224 17.5 6.32149 17.5 7.5C17.5 8.67851 17.5 9.26776 17.8661 9.63389C18.2323 10 18.8215 10 20 10H22.5C23.6785 10 24.2677 10 24.6339 9.63389C25 9.26776 25 8.67851 25 7.5C25 6.32149 25 5.73224 24.6339 5.36611C24.2677 5 23.6785 5 22.5 5H20C18.8215 5 18.2323 5 17.8661 5.36611ZM5.36611 20.3661C5 20.7323 5 21.3215 5 22.5C5 23.6785 5 24.2677 5.36611 24.6339C5.73224 25 6.32149 25 7.5 25H10C11.1785 25 11.7678 25 12.1339 24.6339C12.5 24.2677 12.5 23.6785 12.5 22.5C12.5 21.3215 12.5 20.7323 12.1339 20.3661C11.7678 20 11.1785 20 10 20H7.5C6.32149 20 5.73224 20 5.36611 20.3661ZM17.5 17.5C17.5 16.3215 17.5 15.7323 17.8661 15.3661C18.2323 15 18.8215 15 20 15H22.5C23.6785 15 24.2677 15 24.6339 15.3661C25 15.7323 25 16.3215 25 17.5V22.5C25 23.6785 25 24.2677 24.6339 24.6339C24.2677 25 23.6785 25 22.5 25H20C18.8215 25 18.2323 25 17.8661 24.6339C17.5 24.2677 17.5 23.6785 17.5 22.5V17.5ZM5.36611 5.36611C5 5.73224 5 6.32149 5 7.5V12.5C5 13.6785 5 14.2677 5.36611 14.6339C5.73224 15 6.32149 15 7.5 15H10C11.1785 15 11.7678 15 12.1339 14.6339C12.5 14.2677 12.5 13.6785 12.5 12.5V7.5C12.5 6.32149 12.5 5.73224 12.1339 5.36611C11.7678 5 11.1785 5 10 5H7.5C6.32149 5 5.73224 5 5.36611 5.36611Z" fill="white"/>
<path fill-rule="evenodd" clip-rule="evenodd" d="M6.02906 6.02905L6.03209 6.02734C6.03451 6.02608 6.03866 6.02405 6.04496 6.02147C6.07218 6.01027 6.13264 5.99114 6.25333 5.97492C6.51674 5.9395 6.88424 5.93752 7.50001 5.93752H10C10.6158 5.93752 10.9833 5.9395 11.2467 5.97492C11.3674 5.99114 11.4278 6.01027 11.455 6.02147C11.4614 6.02405 11.4655 6.02608 11.4679 6.02734L11.471 6.02905L11.4727 6.0321C11.4739 6.03452 11.476 6.03867 11.4786 6.04497C11.4898 6.07219 11.5089 6.13264 11.5251 6.25334C11.5605 6.51674 11.5625 6.88425 11.5625 7.50002V12.5C11.5625 13.1158 11.5605 13.4833 11.5251 13.7466C11.5089 13.8674 11.4898 13.9279 11.4786 13.955C11.476 13.9614 11.4739 13.9655 11.4727 13.9679L11.471 13.971L11.4679 13.9726C11.4655 13.974 11.4614 13.976 11.455 13.9785C11.4278 13.9898 11.3674 14.0089 11.2467 14.0251C10.9833 14.0605 10.6158 14.0625 10 14.0625H7.50001C6.88424 14.0625 6.51674 14.0605 6.25333 14.0251C6.13264 14.0089 6.07218 13.9898 6.04496 13.9785C6.03866 13.976 6.03451 13.974 6.03209 13.9726L6.02906 13.971L6.02733 13.9679C6.02607 13.9655 6.02404 13.9614 6.02146 13.955C6.01026 13.9279 5.99114 13.8674 5.97491 13.7466C5.93949 13.4833 5.93751 13.1158 5.93751 12.5V7.50002C5.93751 6.88425 5.93949 6.51674 5.97491 6.25334C5.99114 6.13264 6.01026 6.07219 6.02146 6.04497C6.02404 6.03867 6.02607 6.03452 6.02733 6.0321L6.02906 6.02905ZM7.44407 4.0625C7.46267 4.06252 7.48131 4.06252 7.50001 4.06252H10C10.0187 4.06252 10.0373 4.06252 10.0559 4.0625C10.597 4.06244 11.093 4.06239 11.4965 4.11664C11.9409 4.17638 12.4105 4.31694 12.7968 4.70322C13.1831 5.08949 13.3236 5.55915 13.3834 6.0035C13.4376 6.40702 13.4376 6.90307 13.4375 7.44408C13.4375 7.46268 13.4375 7.48132 13.4375 7.50002V12.5C13.4375 12.5188 13.4375 12.5374 13.4375 12.556C13.4376 13.097 13.4376 13.593 13.3834 13.9965C13.3236 14.4409 13.1831 14.9105 12.7968 15.2968C12.4105 15.6831 11.9409 15.8236 11.4965 15.8834C11.093 15.9376 10.597 15.9376 10.0559 15.9375C10.0373 15.9375 10.0187 15.9375 10 15.9375H7.50001C7.48131 15.9375 7.46267 15.9375 7.44408 15.9375C6.90306 15.9376 6.40701 15.9376 6.00349 15.8834C5.55914 15.8236 5.08949 15.6831 4.70321 15.2968C4.31693 14.9105 4.17637 14.4409 4.11663 13.9965C4.06238 13.593 4.06243 13.097 4.06251 12.556C4.06251 12.5374 4.06251 12.5188 4.06251 12.5V7.50002C4.06251 7.48132 4.06251 7.46267 4.06251 7.44408C4.06243 6.90305 4.06238 6.40702 4.11663 6.0035C4.17637 5.55915 4.31693 5.08949 4.70321 4.70322C5.08949 4.31694 5.55914 4.17638 6.00349 4.11664C6.40701 4.06239 6.90304 4.06244 7.44407 4.0625ZM18.5321 6.02734L18.529 6.02905L18.5274 6.0321C18.5261 6.03452 18.524 6.03867 18.5215 6.04497C18.5103 6.07219 18.4911 6.13264 18.4749 6.25334C18.4395 6.51674 18.4375 6.88425 18.4375 7.50002C18.4375 8.11577 18.4395 8.48328 18.4749 8.74668C18.4911 8.86738 18.5103 8.92783 18.5215 8.95505C18.5225 8.95758 18.5243 8.96163 18.5243 8.96163C18.5255 8.9644 18.5274 8.96793 18.5274 8.96793L18.529 8.97097L18.5321 8.97269C18.5345 8.97395 18.5386 8.97597 18.545 8.97857C18.5721 8.98977 18.6326 9.00888 18.7534 9.0251C19.0168 9.06052 19.3843 9.06252 20 9.06252H22.5C23.1158 9.06252 23.4833 9.06052 23.7466 9.0251C23.8674 9.00888 23.9279 8.98977 23.955 8.97857C23.9614 8.97597 23.9655 8.97395 23.9679 8.97269L23.971 8.97097L23.9726 8.96793C23.9739 8.9655 23.976 8.96137 23.9785 8.95505C23.9898 8.92783 24.0089 8.86738 24.0251 8.74668C24.0605 8.48328 24.0625 8.11577 24.0625 7.50002C24.0625 6.88425 24.0605 6.51674 24.0251 6.25334C24.0089 6.13264 23.9898 6.07219 23.9785 6.04497C23.976 6.03867 23.9739 6.03452 23.9726 6.0321L23.971 6.02905L23.9679 6.02734C23.9655 6.02608 23.9614 6.02405 23.955 6.02147C23.9279 6.01027 23.8674 5.99114 23.7466 5.97492C23.4833 5.9395 23.1158 5.93752 22.5 5.93752H20C19.3843 5.93752 19.0168 5.9395 18.7534 5.97492C18.6326 5.99114 18.5721 6.01027 18.545 6.02147C18.5386 6.02405 18.5345 6.02608 18.5321 6.02734ZM19.9441 4.0625H22.5559C23.097 4.06244 23.593 4.06239 23.9965 4.11664C24.4409 4.17638 24.9105 4.31694 25.2968 4.70322C25.6831 5.08949 25.8236 5.55915 25.8834 6.0035C25.9376 6.40702 25.9376 6.90305 25.9375 7.44408V7.55594C25.9376 8.09697 25.9376 8.593 25.8834 8.99652C25.8236 9.44088 25.6831 9.91053 25.2968 10.2968C24.9105 10.6831 24.4409 10.8236 23.9965 10.8834C23.593 10.9376 23.097 10.9376 22.5559 10.9375H19.9441C19.403 10.9376 18.907 10.9376 18.5035 10.8834C18.0591 10.8236 17.5895 10.6831 17.2033 10.2968C16.8169 9.91053 16.6764 9.44088 16.6166 8.99652C16.5624 8.593 16.5624 8.09697 16.5625 7.55594C16.5625 7.53735 16.5625 7.5187 16.5625 7.50002C16.5625 7.48132 16.5625 7.46268 16.5625 7.44408C16.5624 6.90307 16.5624 6.40702 16.6166 6.0035C16.6764 5.55915 16.8169 5.08949 17.2033 4.70322C17.5895 4.31694 18.0591 4.17638 18.5035 4.11664C18.907 4.06239 19.403 4.06244 19.9441 4.0625ZM19.9441 14.0625H22.5559C23.097 14.0625 23.593 14.0624 23.9965 14.1166C24.4409 14.1764 24.9105 14.3169 25.2968 14.7033C25.6831 15.0895 25.8236 15.5591 25.8834 16.0035C25.9376 16.407 25.9376 16.903 25.9375 17.4441V22.556C25.9376 23.097 25.9376 23.593 25.8834 23.9965C25.8236 24.4409 25.6831 24.9105 25.2968 25.2968C24.9105 25.6831 24.4409 25.8236 23.9965 25.8834C23.593 25.9376 23.097 25.9376 22.5559 25.9375H19.9441C19.403 25.9376 18.907 25.9376 18.5035 25.8834C18.0591 25.8236 17.5895 25.6831 17.2033 25.2968C16.8169 24.9105 16.6764 24.4409 16.6166 23.9965C16.5624 23.593 16.5624 23.097 16.5625 22.556V17.5C16.5625 17.4814 16.5625 17.4626 16.5625 17.4441C16.5624 16.903 16.5624 16.407 16.6166 16.0035C16.6764 15.5591 16.8169 15.0895 17.2033 14.7033C17.5895 14.3169 18.0591 14.1764 18.5035 14.1166C18.907 14.0624 19.403 14.0625 19.9441 14.0625ZM18.5321 16.0274L18.529 16.029L18.5274 16.0321C18.5261 16.0345 18.524 16.0386 18.5215 16.045C18.5103 16.0723 18.4911 16.1326 18.4749 16.2534C18.4395 16.5168 18.4375 16.8843 18.4375 17.5V22.5C18.4375 23.1158 18.4395 23.4833 18.4749 23.7466C18.4911 23.8674 18.5103 23.9279 18.5215 23.955C18.524 23.9614 18.5261 23.9655 18.5274 23.9679L18.529 23.971L18.5321 23.9726C18.5345 23.974 18.5386 23.976 18.545 23.9785C18.5721 23.9898 18.6326 24.0089 18.7534 24.0251C19.0168 24.0605 19.3843 24.0625 20 24.0625H22.5C23.1158 24.0625 23.4833 24.0605 23.7466 24.0251C23.8674 24.0089 23.9279 23.9898 23.955 23.9785C23.9614 23.976 23.9655 23.974 23.9679 23.9726L23.971 23.971L23.9726 23.9679C23.9739 23.9655 23.976 23.9614 23.9785 23.955C23.9898 23.9279 24.0089 23.8674 24.0251 23.7466C24.0605 23.4833 24.0625 23.1158 24.0625 22.5V17.5C24.0625 16.8843 24.0605 16.5168 24.0251 16.2534C24.0089 16.1326 23.9898 16.0723 23.9785 16.045C23.977 16.0413 23.9756 16.0383 23.9746 16.0359L23.9726 16.0321L23.971 16.029L23.9679 16.0274C23.9655 16.0261 23.9614 16.024 23.955 16.0215C23.9279 16.0103 23.8674 15.9911 23.7466 15.9749C23.4833 15.9395 23.1158 15.9375 22.5 15.9375H20C19.3843 15.9375 19.0168 15.9395 18.7534 15.9749C18.6326 15.9911 18.5721 16.0103 18.545 16.0215C18.5386 16.024 18.5345 16.0261 18.5321 16.0274ZM6.03209 21.0274L6.02906 21.029L6.02733 21.0321C6.02607 21.0345 6.02404 21.0386 6.02146 21.045C6.01026 21.0723 5.99113 21.1326 5.97491 21.2534C5.93949 21.5168 5.93751 21.8843 5.93751 22.5C5.93751 23.1158 5.93949 23.4833 5.97491 23.7466C5.99113 23.8674 6.01026 23.9279 6.02146 23.955C6.02404 23.9614 6.02607 23.9655 6.02733 23.9679L6.02906 23.971L6.03209 23.9726C6.03451 23.974 6.03866 23.976 6.04496 23.9785C6.07218 23.9898 6.13264 24.0089 6.25333 24.0251C6.51674 24.0605 6.88424 24.0625 7.50001 24.0625H10C10.6158 24.0625 10.9833 24.0605 11.2467 24.0251C11.3674 24.0089 11.4278 23.9898 11.455 23.9785C11.4582 23.9773 11.463 23.9751 11.463 23.9751L11.4679 23.9726L11.471 23.971L11.4727 23.9679L11.4745 23.9643C11.4756 23.9619 11.477 23.9589 11.4786 23.955C11.4898 23.9279 11.5089 23.8674 11.5251 23.7466C11.5605 23.4833 11.5625 23.1158 11.5625 22.5C11.5625 21.8843 11.5605 21.5168 11.5251 21.2534C11.5089 21.1326 11.4898 21.0723 11.4786 21.045C11.476 21.0386 11.4739 21.0345 11.4727 21.0321L11.471 21.029L11.4679 21.0274C11.4655 21.0261 11.4614 21.024 11.455 21.0215C11.4278 21.0103 11.3674 20.9911 11.2467 20.9749C10.9833 20.9395 10.6158 20.9375 10 20.9375H7.50001C6.88424 20.9375 6.51674 20.9395 6.25333 20.9749C6.13264 20.9911 6.07218 21.0103 6.04496 21.0215C6.03866 21.024 6.03451 21.0261 6.03209 21.0274ZM7.44408 19.0625H10.0559C10.597 19.0625 11.093 19.0624 11.4965 19.1166C11.9409 19.1764 12.4105 19.3169 12.7968 19.7033C13.1831 20.0895 13.3236 20.5591 13.3834 21.0035C13.4376 21.407 13.4376 21.903 13.4375 22.4441V22.556C13.4376 23.097 13.4376 23.593 13.3834 23.9965C13.3236 24.4409 13.1831 24.9105 12.7968 25.2968C12.4105 25.6831 11.9409 25.8236 11.4965 25.8834C11.093 25.9376 10.597 25.9376 10.0559 25.9375H7.44407C6.90306 25.9376 6.40701 25.9376 6.00349 25.8834C5.55914 25.8236 5.08949 25.6831 4.70321 25.2968C4.31693 24.9105 4.17637 24.4409 4.11663 23.9965C4.06238 23.593 4.06243 23.097 4.06251 22.556V22.4441C4.06243 21.903 4.06238 21.407 4.11663 21.0035C4.17637 20.5591 4.31693 20.0895 4.70321 19.7033C5.08949 19.3169 5.55914 19.1764 6.00349 19.1166C6.40701 19.0624 6.90306 19.0625 7.44408 19.0625Z" fill="white"/>
</svg>
