<svg width="35" height="35" viewBox="0 0 35 35" fill="none" xmlns="http://www.w3.org/2000/svg">
<path d="M34.9897 0H0.0102539C0.00459083 0 0 0.00459083 0 0.0102539V34.9897C0 34.9954 0.00459083 35 0.0102539 35H34.9897C34.9954 35 35 34.9954 35 34.9897V0.0102539C35 0.00459083 34.9954 0 34.9897 0Z" fill="white"/>
<path d="M17.5 24.7461V32.0605L26.4551 19.4141L17.5 24.7461Z" fill="#3C3C3B"/>
<path d="M17.5 2.80273L26.4551 17.7051L17.5 23.0371L8.47656 17.7051" fill="#343434"/>
<path d="M17.5 2.80273V13.6035L8.47656 17.7051L17.5 2.80273ZM8.47656 19.4141L17.5 24.7461V32.0605" fill="#8C8C8C"/>
<path d="M17.5 13.6035V23.0371L26.4551 17.7051" fill="#141414"/>
<path d="M8.47656 17.7051L17.5 13.6035V23.0371" fill="#393939"/>
</svg>
