<svg width="18" height="18" viewBox="0 0 18 18" fill="none" xmlns="http://www.w3.org/2000/svg">
<g clip-path="url(#clip0_321_745)">
<path d="M17.8514 8.55108C17.6914 8.33589 13.8771 3.28125 9 3.28125C4.12288 3.28125 0.308581 8.33589 0.148574 8.55108C-0.0495246 8.81748 -0.0495246 9.18226 0.148574 9.44866C0.308581 9.66385 4.12288 14.7184 9 14.7184C13.8771 14.7184 17.6914 9.66385 17.8514 9.44866C18.0495 9.18232 18.0495 8.81748 17.8514 8.55108ZM9 12.0119C7.33915 12.0119 5.98797 10.6607 5.98797 8.99987C5.98797 7.33896 7.33915 5.98777 9 5.98777C10.6609 5.98777 12.0121 7.33896 12.0121 8.99987C12.0121 10.6607 10.6608 12.0119 9 12.0119Z" fill="#7B7B7B"/>
<path d="M9.0001 10.2795C9.70669 10.2795 10.2795 9.70669 10.2795 9.0001C10.2795 8.29351 9.70669 7.7207 9.0001 7.7207C8.29351 7.7207 7.7207 8.29351 7.7207 9.0001C7.7207 9.70669 8.29351 10.2795 9.0001 10.2795Z" fill="#7B7B7B"/>
</g>
<defs>
<clipPath id="clip0_321_745">
<rect width="18" height="18" fill="white"/>
</clipPath>
</defs>
</svg>
