<svg width="35" height="35" viewBox="0 0 35 35" fill="none" xmlns="http://www.w3.org/2000/svg">
<path d="M29.4641 6.73405H25.9936V5.0318C25.9936 2.25726 23.7364 0 20.9617 0H14.0384C11.2638 0 9.00657 2.25726 9.00657 5.0318V6.73405H5.53612C3.01419 6.73405 0.969727 8.77852 0.969727 11.3004V17.0434H34.0304V11.3004C34.0305 8.77843 31.986 6.73405 29.4641 6.73405ZM22.3405 6.73405H12.6598V5.0318C12.6598 4.27158 13.2782 3.65311 14.0385 3.65311H20.9619C21.7221 3.65311 22.3406 4.27158 22.3406 5.0318L22.3405 6.73405Z" fill="#2779BE"/>
<path d="M29.5248 22.3144C29.5248 22.9012 29.0493 23.3767 28.4626 23.3767H24.6812C24.0946 23.3767 23.619 22.9012 23.619 22.3144V20.4237H11.3811V22.3144C11.3811 22.9012 10.9055 23.3767 10.3189 23.3767H6.53734C5.95083 23.3767 5.47529 22.9012 5.47529 22.3144V20.4237H0.969727V30.4336C0.969727 32.9555 3.01419 35 5.53611 35H29.464C31.9859 35 34.0304 32.9555 34.0304 30.4336V20.4237H29.5248V22.3144Z" fill="#2779BE"/>
</svg>
