<svg width="30" height="32" viewBox="0 0 30 32" fill="none" xmlns="http://www.w3.org/2000/svg">
<path d="M2.72386 32H27.276C28.4976 32 29.488 31.0387 29.488 29.853V12.464C29.488 11.2783 28.4976 10.3169 27.276 10.3169H26.8511C26.7453 4.05974 21.4715 -1 14.9999 -1C8.52835 -1 3.25451 4.05974 3.1491 10.317H2.72425C1.5026 10.317 0.512207 11.2783 0.512207 12.464V29.8535C0.512207 31.0387 1.50222 32 2.72386 32ZM17.1488 21.2723V26.4842C17.1488 27.5344 16.2713 28.3862 15.1892 28.3862H14.8102C13.7281 28.3862 12.8505 27.5344 12.8505 26.4842V21.2723C11.7002 20.5749 10.932 19.3387 10.932 17.9251C10.932 15.745 12.7529 13.9772 14.9994 13.9772C17.2459 13.9772 19.0669 15.7446 19.0669 17.9251C19.0674 19.3387 18.2992 20.575 17.1488 21.2723ZM14.9999 3.56484C18.8776 3.56484 22.0374 6.57724 22.1428 10.317H7.85694C7.96242 6.57767 11.1221 3.56484 14.9999 3.56484Z" fill="#3E45FF"/>
</svg>
