<svg width="31" height="31" viewBox="0 0 31 31" fill="none" xmlns="http://www.w3.org/2000/svg">
<path d="M1.31017 17.8419L3.34181 17.8545C3.64561 19.4178 4.24687 20.9368 5.15826 22.3165L3.71523 23.7469C3.19624 24.2596 3.19624 25.0887 3.70257 25.6076L5.25952 27.1836C5.77218 27.7026 6.60129 27.7026 7.12028 27.1962L8.56331 25.7659C9.93039 26.6899 11.443 27.3165 13.0063 27.633L12.9937 29.6646C12.9873 30.3924 13.5759 30.981 14.3038 30.9874L16.519 31C17.2468 31.0064 17.8354 30.4178 17.8418 29.6899L17.8544 27.6583C19.4177 27.3545 20.9367 26.7532 22.3164 25.8418L23.7468 27.2849C24.2595 27.8038 25.0886 27.8038 25.6075 27.2975L27.1835 25.7406C27.7025 25.2279 27.7025 24.3988 27.1961 23.8798L25.7658 22.4368C26.6898 21.0697 27.3164 19.557 27.6329 17.9938L29.6645 18.0064C30.3923 18.0127 30.9809 17.4241 30.9873 16.6963L30.9999 14.4811C31.0063 13.7533 30.4177 13.1647 29.6898 13.1583L27.6582 13.1457C27.3544 11.5824 26.7531 10.0634 25.8417 8.68366L27.2848 7.25329C27.8037 6.74063 27.8037 5.91152 27.2974 5.39253L25.7405 3.81659C25.2278 3.29761 24.3987 3.29761 23.8797 3.80393L22.4367 5.23431C21.0696 4.31026 19.5569 3.68368 17.9937 3.36723L18.0063 1.33559C18.0126 0.607742 17.424 0.019137 16.6962 0.0128079L14.481 0.000149749C13.7532 -0.00617934 13.1646 0.582426 13.1582 1.31027L13.1392 3.34191C11.5696 3.64571 10.0506 4.24697 8.67723 5.15836L7.24686 3.71533C6.7342 3.19634 5.90509 3.19634 5.38611 3.70267L3.81649 5.25962C3.29751 5.77228 3.29751 6.60139 3.80383 7.12038L5.23421 8.56341C4.31016 9.93049 3.68358 11.4431 3.36713 13.0064L1.33549 12.9938C0.607643 12.9874 0.0190378 13.576 0.0127087 14.3039L5.05669e-05 16.5191C-0.00627852 17.2406 0.582327 17.8355 1.31017 17.8419ZM11.3481 11.3039C13.6646 9.01277 17.3924 9.03176 19.6835 11.3482C21.9747 13.6647 21.9557 17.3925 19.6392 19.6836C17.3228 21.9748 13.5949 21.9558 11.3038 19.6393C9.01268 17.3229 9.03166 13.595 11.3481 11.3039Z" fill="#838383"/>
</svg>
