<svg width="31" height="31" viewBox="0 0 31 31" fill="none" xmlns="http://www.w3.org/2000/svg">
<path d="M1.31017 17.8418L3.34181 17.8544C3.64561 19.4177 4.24687 20.9367 5.15826 22.3164L3.71523 23.7468C3.19624 24.2595 3.19624 25.0886 3.70257 25.6075L5.25952 27.1835C5.77218 27.7025 6.60129 27.7025 7.12028 27.1961L8.56331 25.7658C9.93039 26.6898 11.443 27.3164 13.0063 27.6329L12.9937 29.6645C12.9873 30.3923 13.5759 30.9809 14.3038 30.9873L16.519 30.9999C17.2468 31.0063 17.8354 30.4177 17.8418 29.6898L17.8544 27.6582C19.4177 27.3544 20.9367 26.7531 22.3164 25.8417L23.7468 27.2848C24.2595 27.8037 25.0886 27.8037 25.6075 27.2974L27.1835 25.7405C27.7025 25.2278 27.7025 24.3987 27.1961 23.8797L25.7658 22.4367C26.6898 21.0696 27.3164 19.5569 27.6329 17.9937L29.6645 18.0063C30.3923 18.0126 30.9809 17.424 30.9873 16.6962L30.9999 14.481C31.0063 13.7532 30.4177 13.1646 29.6898 13.1582L27.6582 13.1456C27.3544 11.5823 26.7531 10.0633 25.8417 8.68356L27.2848 7.25319C27.8037 6.74053 27.8037 5.91142 27.2974 5.39244L25.7405 3.81649C25.2278 3.29751 24.3987 3.29751 23.8797 3.80383L22.4367 5.23421C21.0696 4.31016 19.5569 3.68358 17.9937 3.36713L18.0063 1.33549C18.0126 0.607643 17.424 0.0190378 16.6962 0.0127087L14.481 5.05669e-05C13.7532 -0.00627852 13.1646 0.582327 13.1582 1.31017L13.1392 3.34181C11.5696 3.64561 10.0506 4.24687 8.67723 5.15826L7.24686 3.71523C6.7342 3.19624 5.90509 3.19624 5.38611 3.70257L3.81649 5.25952C3.29751 5.77218 3.29751 6.60129 3.80383 7.12028L5.23421 8.56331C4.31016 9.93039 3.68358 11.443 3.36713 13.0063L1.33549 12.9937C0.607643 12.9873 0.0190378 13.5759 0.0127087 14.3038L5.05669e-05 16.519C-0.00627852 17.2405 0.582327 17.8354 1.31017 17.8418ZM11.3481 11.3038C13.6646 9.01268 17.3924 9.03166 19.6835 11.3481C21.9747 13.6646 21.9557 17.3924 19.6392 19.6835C17.3228 21.9747 13.5949 21.9557 11.3038 19.6392C9.01268 17.3228 9.03166 13.5949 11.3481 11.3038Z" fill="white"/>
</svg>
