<svg width="26" height="26" viewBox="0 0 26 26" fill="none" xmlns="http://www.w3.org/2000/svg">
<path d="M13 26C20.1797 26 26 20.1797 26 13C26 5.8203 20.1797 0 13 0C5.8203 0 0 5.8203 0 13C0 20.1797 5.8203 26 13 26Z" fill="#26A17B"/>
<path fill-rule="evenodd" clip-rule="evenodd" d="M14.5615 14.1237V14.1221C14.4722 14.1286 14.0115 14.1562 12.9837 14.1562C12.163 14.1562 11.5853 14.1318 11.3822 14.1221V14.1245C8.22321 13.9856 5.86534 13.4355 5.86534 12.7774C5.86534 12.1201 8.22321 11.57 11.3822 11.4287V13.5769C11.5886 13.5915 12.1801 13.6265 12.9975 13.6265C13.9782 13.6265 14.4697 13.5858 14.5615 13.5777V11.4303C17.714 11.5708 20.0662 12.1209 20.0662 12.7774C20.0662 13.4355 17.714 13.984 14.5615 14.1237ZM14.5615 11.2068V9.28447H18.9604V6.35297H6.98334V9.28447H11.3822V11.206C7.80721 11.3702 5.11865 12.0787 5.11865 12.9269C5.11865 13.7752 7.80721 14.4828 11.3822 14.6478V20.8082H14.5615V14.6462C18.1308 14.482 20.8129 13.7743 20.8129 12.9269C20.8129 12.0795 18.1308 11.3718 14.5615 11.2068Z" fill="white"/>
</svg>
