<svg width="26" height="23" viewBox="0 0 26 23" fill="none" xmlns="http://www.w3.org/2000/svg">
<path d="M23.9432 10.3491V7.94011C23.9432 7.0531 23.2285 6.33412 22.347 6.33412L4.78864 6.33412C3.90833 6.33412 3.19243 5.61383 3.19243 4.72813C3.19243 3.84243 3.90833 3.12214 4.78864 3.12214L22.347 3.12214C23.2285 3.12214 23.9432 2.40306 23.9432 1.51615C23.9432 0.629239 23.2285 -0.0898437 22.347 -0.0898437L4.78864 -0.0898437C2.14801 -0.0898437 0 2.07137 0 4.72813L0 6.33412L0 19.182C0 20.956 1.42941 22.394 3.19243 22.394H22.347C23.2285 22.394 23.9432 21.675 23.9432 20.788V18.3791C24.8247 18.3791 25.5394 17.6601 25.5394 16.7731V11.9551C25.5394 11.0681 24.8247 10.3491 23.9432 10.3491ZM21.5489 15.9701C20.6674 15.9701 19.9527 15.2511 19.9527 14.3641C19.9527 13.4771 20.6674 12.7581 21.5489 12.7581C22.4304 12.7581 23.1451 13.4771 23.1451 14.3641C23.1451 15.2511 22.4304 15.9701 21.5489 15.9701Z" fill="#838383"/>
</svg>
