<svg width="36" height="32" viewBox="0 0 36 32" fill="none" xmlns="http://www.w3.org/2000/svg">
<path d="M33.75 14.875V11.5C33.75 10.2573 32.7426 9.25 31.5 9.25H6.75C5.50912 9.25 4.5 8.24088 4.5 7C4.5 5.75912 5.50912 4.75 6.75 4.75H31.5C32.7426 4.75 33.75 3.74256 33.75 2.5C33.75 1.25744 32.7426 0.25 31.5 0.25H6.75C3.0278 0.25 0 3.27787 0 7V9.25V27.25C0 29.7353 2.01487 31.75 4.5 31.75H31.5C32.7426 31.75 33.75 30.7427 33.75 29.5V26.125C34.9926 26.125 36 25.1177 36 23.875V17.125C36 15.8823 34.9926 14.875 33.75 14.875ZM30.375 22.75C29.1324 22.75 28.125 21.7427 28.125 20.5C28.125 19.2573 29.1324 18.25 30.375 18.25C31.6176 18.25 32.625 19.2573 32.625 20.5C32.625 21.7427 31.6176 22.75 30.375 22.75Z" fill="#2779BE"/>
</svg>
