<svg width="42" height="42" viewBox="0 0 42 42" fill="none" xmlns="http://www.w3.org/2000/svg">
<g clip-path="url(#clip0_302_466)">
<path d="M15.7618 18.5438C18.6595 14.8488 23.1604 12.474 28.2272 12.474C28.9816 12.474 29.7275 12.5254 30.4648 12.6283V9.25049C28.1757 11.3081 22.2431 12.7741 15.2731 12.7741C8.34597 12.7741 2.43048 11.3252 0.115723 9.27621V13.6228C1.2731 18.3638 15.5989 18.5524 15.7618 18.5438Z" fill="#8E8E8E"/>
<path d="M0.107206 17.0177L0.0986328 21.4329C0.655889 23.8848 5.82552 25.8738 12.5212 26.311C12.7784 24.2277 13.4471 22.2645 14.4416 20.5156C7.86593 20.4041 2.31909 18.9895 0.107206 17.0177Z" fill="#8E8E8E"/>
<path d="M0.0986611 24.8622L0.0900879 29.063C0.115807 29.0373 0.141527 29.0116 0.167247 28.9945C0.330137 31.7036 6.11703 33.924 13.55 34.2412C12.8041 32.4066 12.4012 30.409 12.4012 28.3086V28.3C6.72573 27.9485 2.07049 26.6283 0.0986611 24.8622Z" fill="#8E8E8E"/>
<path d="M14.5358 36.2389C7.83157 36.1274 2.199 34.6442 0.0899941 32.621L0.0814209 36.5818C0.0814209 39.5652 6.87995 41.9829 15.2731 41.9829C16.8763 41.9829 18.4194 41.8972 19.8683 41.7343C17.6736 40.3626 15.8389 38.4765 14.5358 36.2389Z" fill="#8E8E8E"/>
<path d="M15.2731 10.7851C23.6727 10.7851 30.482 8.37074 30.482 5.39253C30.482 2.41432 23.6727 0 15.2731 0C6.87355 0 0.0643311 2.41432 0.0643311 5.39253C0.0643311 8.37074 6.87355 10.7851 15.2731 10.7851Z" fill="#8E8E8E"/>
<path d="M28.2272 14.5916C20.6571 14.5916 14.5187 20.7299 14.5187 28.3001C14.5187 35.8702 20.6571 42 28.2272 42C35.7973 42 41.9357 35.8616 41.9357 28.2915C41.9357 20.7214 35.7973 14.5916 28.2272 14.5916ZM29.4789 35.613V36.4789C29.4789 37.1733 28.9216 37.7306 28.2272 37.7306C27.5328 37.7306 26.9755 37.1733 26.9755 36.4789V35.613C26.2468 35.3901 25.5695 34.9871 25.038 34.4213C24.5664 33.9155 24.5922 33.1268 25.0894 32.6552C25.5952 32.1837 26.3582 32.2352 26.8555 32.7067C27.4042 33.2296 28.3129 33.2897 28.3558 33.2897C29.3246 33.2211 30.0961 32.4066 30.0961 31.4207C30.0961 30.3919 29.256 29.5432 28.2272 29.5432C25.8181 29.5432 23.8549 27.5799 23.8549 25.1709C23.8549 23.1905 25.1751 21.5187 26.9755 20.9786V20.1127C26.9755 19.4183 27.5328 18.861 28.2272 18.861C28.9216 18.861 29.4789 19.4183 29.4789 20.1127V20.9786C30.2076 21.2015 30.8849 21.6044 31.4164 22.1702C31.8879 22.6761 31.8622 23.4648 31.365 23.9363C30.8592 24.4078 30.0276 24.425 29.5989 23.8849C29.1445 23.3105 28.1415 23.3019 28.0986 23.3019C27.1298 23.3705 26.3582 24.1849 26.3582 25.1709C26.3582 26.1996 27.1984 27.0484 28.2272 27.0484C30.6363 27.0484 32.5995 29.0116 32.5995 31.4207C32.5995 33.4011 31.2792 35.0729 29.4789 35.613Z" fill="#8E8E8E"/>
</g>
<defs>
<clipPath id="clip0_302_466">
<rect width="42" height="42" fill="white"/>
</clipPath>
</defs>
</svg>
