<svg width="15" height="19" viewBox="0 0 15 19" fill="none" xmlns="http://www.w3.org/2000/svg">
<path d="M13.7086 10.7062C13.4152 10.1996 13.0152 9.80211 12.5086 9.52088C12.1599 9.32054 11.6533 9.13305 10.9926 8.96547C11.6084 8.75615 12.1047 8.49546 12.4784 8.17442C12.8559 7.85081 13.1404 7.48096 13.3375 7.06553C13.5391 6.64818 13.6438 6.2077 13.6438 5.74155C13.6438 5.10395 13.4544 4.5158 13.0768 3.97902C12.6967 3.44223 12.1599 3.03258 11.4587 2.74878C11.1891 2.6377 10.8667 2.55358 10.5104 2.48552V0L8.12759 0V2.31858H6.593V0L4.20893 0V2.31858H0.56958V4.26539H1.11921C1.49033 4.26539 1.74524 4.30006 1.8743 4.36812C2.004 4.4349 2.09967 4.52543 2.15425 4.64165C2.20947 4.7553 2.23516 5.02241 2.23516 5.44041L2.23516 13.2976C2.23516 13.7105 2.20947 13.9699 2.15425 14.0868C2.09967 14.2062 2.00529 14.2948 1.8743 14.3641C1.74524 14.4271 1.49033 14.4579 1.11921 14.4579H0.56958V16.4028H4.20893V18.7226H6.593V16.4028H7.94974C8.00945 16.4028 8.06852 16.4028 8.12631 16.4028V18.7226H10.5091V16.2057C10.913 16.1292 11.2655 16.0291 11.5653 15.9084C12.3878 15.5796 13.0248 15.1006 13.4755 14.4714C13.9308 13.8408 14.1542 13.1506 14.1542 12.4032C14.1536 11.781 14.0059 11.2153 13.7086 10.7062ZM5.72105 4.58836H7.26463C8.16612 4.58836 8.79601 4.64486 9.14594 4.75915C9.49331 4.86831 9.76299 5.05516 9.94599 5.31649C10.1328 5.58167 10.2247 5.90014 10.2247 6.2687C10.2247 6.62378 10.1258 6.93711 9.93379 7.21064C9.73538 7.48546 9.44452 7.68836 9.05862 7.81999C8.6708 7.95675 8.0743 8.02545 7.26655 8.02545H5.72298L5.72105 4.58836ZM10.0828 13.2996C9.80537 13.6469 9.47726 13.88 9.07981 13.9892C8.69006 14.0996 8.19437 14.1561 7.5953 14.1561H6.56668C6.22509 14.1561 6.01513 14.1362 5.93615 14.0996C5.85717 14.0669 5.80452 13.9994 5.76921 13.9063C5.74545 13.8299 5.72554 13.5789 5.72169 13.1435V10.0936H7.54394C8.34911 10.0936 8.93727 10.1675 9.32894 10.3171C9.7174 10.4647 10.0134 10.6831 10.2028 10.9752C10.3999 11.2622 10.5001 11.6122 10.5001 12.0334C10.5007 12.5271 10.3614 12.9458 10.0828 13.2996Z" fill="#FFB31A"/>
</svg>
