<svg width="22" height="22" viewBox="0 0 22 22" fill="none" xmlns="http://www.w3.org/2000/svg">
<path fill-rule="evenodd" clip-rule="evenodd" d="M2.02906 2.02905L2.03209 2.02734C2.03451 2.02608 2.03866 2.02405 2.04496 2.02147C2.07218 2.01027 2.13264 1.99114 2.25333 1.97492C2.51674 1.9395 2.88424 1.93752 3.50001 1.93752H6.00001C6.61577 1.93752 6.98327 1.9395 7.24668 1.97492C7.36737 1.99114 7.42782 2.01027 7.45504 2.02147C7.46136 2.02405 7.46549 2.02608 7.46792 2.02734L7.47095 2.02905L7.47268 2.0321C7.47394 2.03452 7.47597 2.03867 7.47856 2.04497C7.48976 2.07219 7.50887 2.13264 7.52511 2.25334C7.56052 2.51674 7.56251 2.88425 7.56251 3.50002V8.5C7.56251 9.11575 7.56052 9.48325 7.52511 9.74663C7.50887 9.86738 7.48976 9.92788 7.47856 9.955C7.47597 9.96138 7.47394 9.9655 7.47268 9.96788L7.47095 9.971L7.46792 9.97263C7.46549 9.974 7.46136 9.976 7.45504 9.9785C7.42782 9.98975 7.36737 10.0089 7.24668 10.0251C6.98327 10.0605 6.61577 10.0625 6.00001 10.0625H3.50001C2.88424 10.0625 2.51674 10.0605 2.25333 10.0251C2.13264 10.0089 2.07218 9.98975 2.04496 9.9785C2.03866 9.976 2.03451 9.974 2.03209 9.97263L2.02906 9.971L2.02733 9.96788C2.02607 9.9655 2.02404 9.96138 2.02146 9.955C2.01026 9.92788 1.99114 9.86738 1.97491 9.74663C1.93949 9.48325 1.93751 9.11575 1.93751 8.5V3.50002C1.93751 2.88425 1.93949 2.51674 1.97491 2.25334C1.99114 2.13264 2.01026 2.07219 2.02146 2.04497C2.02404 2.03867 2.02607 2.03452 2.02733 2.0321L2.02906 2.02905ZM3.44407 0.0625042C3.46267 0.0625167 3.48131 0.0625167 3.50001 0.0625167H6.00001C6.01871 0.0625167 6.03734 0.0625167 6.05594 0.0625042C6.59696 0.0624417 7.09301 0.0623916 7.49652 0.116642C7.94087 0.176379 8.41052 0.316942 8.79676 0.703217C9.18313 1.08949 9.32363 1.55915 9.38338 2.0035C9.43763 2.40702 9.43763 2.90307 9.43751 3.44408C9.43751 3.46268 9.43751 3.48132 9.43751 3.50002V8.5C9.43751 8.51875 9.43751 8.53738 9.43751 8.556C9.43763 9.097 9.43763 9.593 9.38338 9.9965C9.32363 10.4409 9.18313 10.9105 8.79676 11.2968C8.41052 11.6831 7.94087 11.8236 7.49652 11.8834C7.09299 11.9376 6.59696 11.9376 6.05593 11.9375C6.03734 11.9375 6.01871 11.9375 6.00001 11.9375H3.50001C3.48131 11.9375 3.46267 11.9375 3.44408 11.9375C2.90306 11.9376 2.40701 11.9376 2.00349 11.8834C1.55914 11.8236 1.08949 11.6831 0.703205 11.2968C0.31693 10.9105 0.176368 10.4409 0.11663 9.9965C0.0623804 9.593 0.0624305 9.097 0.0625055 8.556C0.0625055 8.53738 0.0625055 8.51875 0.0625055 8.5V3.50002C0.0625055 3.48132 0.0625055 3.46267 0.0625055 3.44408C0.0624305 2.90305 0.0623804 2.40702 0.11663 2.0035C0.176368 1.55915 0.31693 1.08949 0.703205 0.703217C1.08949 0.316942 1.55914 0.176379 2.00349 0.116642C2.40701 0.0623916 2.90304 0.0624417 3.44407 0.0625042ZM14.5321 2.02734L14.529 2.02905L14.5274 2.0321C14.5261 2.03452 14.524 2.03867 14.5215 2.04497C14.5103 2.07219 14.4911 2.13264 14.4749 2.25334C14.4395 2.51674 14.4375 2.88425 14.4375 3.50002C14.4375 4.11577 14.4395 4.48328 14.4749 4.74668C14.4911 4.86738 14.5103 4.92783 14.5215 4.95505C14.5225 4.95758 14.5243 4.96163 14.5243 4.96163C14.5255 4.9644 14.5274 4.96793 14.5274 4.96793L14.529 4.97097L14.5321 4.97269C14.5345 4.97395 14.5386 4.97597 14.545 4.97857C14.5721 4.98977 14.6326 5.00888 14.7534 5.0251C15.0168 5.06052 15.3843 5.06252 16 5.06252H18.5C19.1158 5.06252 19.4833 5.06052 19.7466 5.0251C19.8674 5.00888 19.9279 4.98977 19.955 4.97857C19.9614 4.97597 19.9655 4.97395 19.9679 4.97269L19.971 4.97097L19.9726 4.96793C19.9739 4.9655 19.976 4.96137 19.9785 4.95505C19.9898 4.92783 20.0089 4.86738 20.0251 4.74668C20.0605 4.48328 20.0625 4.11577 20.0625 3.50002C20.0625 2.88425 20.0605 2.51674 20.0251 2.25334C20.0089 2.13264 19.9898 2.07219 19.9785 2.04497C19.976 2.03867 19.9739 2.03452 19.9726 2.0321L19.971 2.02905L19.9679 2.02734C19.9655 2.02608 19.9614 2.02405 19.955 2.02147C19.9279 2.01027 19.8674 1.99114 19.7466 1.97492C19.4833 1.9395 19.1158 1.93752 18.5 1.93752H16C15.3843 1.93752 15.0168 1.9395 14.7534 1.97492C14.6326 1.99114 14.5721 2.01027 14.545 2.02147C14.5386 2.02405 14.5345 2.02608 14.5321 2.02734ZM15.9441 0.0625042H18.5559C19.097 0.0624417 19.593 0.0623916 19.9965 0.116642C20.4409 0.176379 20.9105 0.316942 21.2968 0.703217C21.6831 1.08949 21.8236 1.55915 21.8834 2.0035C21.9376 2.40702 21.9376 2.90305 21.9375 3.44408V3.55594C21.9376 4.09697 21.9376 4.593 21.8834 4.99652C21.8236 5.44088 21.6831 5.91053 21.2968 6.2968C20.9105 6.68309 20.4409 6.82364 19.9965 6.88339C19.593 6.93764 19.097 6.93758 18.5559 6.93752H15.9441C15.403 6.93758 14.907 6.93764 14.5035 6.88339C14.0591 6.82364 13.5895 6.68309 13.2033 6.2968C12.8169 5.91053 12.6764 5.44088 12.6166 4.99652C12.5624 4.593 12.5624 4.09697 12.5625 3.55594C12.5625 3.53735 12.5625 3.5187 12.5625 3.50002C12.5625 3.48132 12.5625 3.46268 12.5625 3.44408C12.5624 2.90307 12.5624 2.40702 12.6166 2.0035C12.6764 1.55915 12.8169 1.08949 13.2033 0.703217C13.5895 0.316942 14.0591 0.176379 14.5035 0.116642C14.907 0.0623916 15.403 0.0624417 15.9441 0.0625042ZM15.9441 10.0625H18.5559C19.097 10.0625 19.593 10.0624 19.9965 10.1166C20.4409 10.1764 20.9105 10.3169 21.2968 10.7033C21.6831 11.0895 21.8236 11.5591 21.8834 12.0035C21.9376 12.407 21.9376 12.903 21.9375 13.4441V18.556C21.9376 19.097 21.9376 19.593 21.8834 19.9965C21.8236 20.4409 21.6831 20.9105 21.2968 21.2968C20.9105 21.6831 20.4409 21.8236 19.9965 21.8834C19.593 21.9376 19.097 21.9376 18.5559 21.9375H15.9441C15.403 21.9376 14.907 21.9376 14.5035 21.8834C14.0591 21.8236 13.5895 21.6831 13.2033 21.2968C12.8169 20.9105 12.6764 20.4409 12.6166 19.9965C12.5624 19.593 12.5624 19.097 12.5625 18.556V13.5C12.5625 13.4814 12.5625 13.4626 12.5625 13.4441C12.5624 12.903 12.5624 12.407 12.6166 12.0035C12.6764 11.5591 12.8169 11.0895 13.2033 10.7033C13.5895 10.3169 14.0591 10.1764 14.5035 10.1166C14.907 10.0624 15.403 10.0625 15.9441 10.0625ZM14.5321 12.0274L14.529 12.029L14.5274 12.0321C14.5261 12.0345 14.524 12.0386 14.5215 12.045C14.5103 12.0723 14.4911 12.1326 14.4749 12.2534C14.4395 12.5168 14.4375 12.8843 14.4375 13.5V18.5C14.4375 19.1158 14.4395 19.4833 14.4749 19.7466C14.4911 19.8674 14.5103 19.9279 14.5215 19.955C14.524 19.9614 14.5261 19.9655 14.5274 19.9679L14.529 19.971L14.5321 19.9726C14.5345 19.974 14.5386 19.976 14.545 19.9785C14.5721 19.9898 14.6326 20.0089 14.7534 20.0251C15.0168 20.0605 15.3843 20.0625 16 20.0625H18.5C19.1158 20.0625 19.4833 20.0605 19.7466 20.0251C19.8674 20.0089 19.9279 19.9898 19.955 19.9785C19.9614 19.976 19.9655 19.974 19.9679 19.9726L19.971 19.971L19.9726 19.9679C19.9739 19.9655 19.976 19.9614 19.9785 19.955C19.9898 19.9279 20.0089 19.8674 20.0251 19.7466C20.0605 19.4833 20.0625 19.1158 20.0625 18.5V13.5C20.0625 12.8843 20.0605 12.5168 20.0251 12.2534C20.0089 12.1326 19.9898 12.0723 19.9785 12.045C19.977 12.0413 19.9756 12.0383 19.9746 12.0359L19.9726 12.0321L19.971 12.029L19.9679 12.0274C19.9655 12.0261 19.9614 12.024 19.955 12.0215C19.9279 12.0103 19.8674 11.9911 19.7466 11.9749C19.4833 11.9395 19.1158 11.9375 18.5 11.9375H16C15.3843 11.9375 15.0168 11.9395 14.7534 11.9749C14.6326 11.9911 14.5721 12.0103 14.545 12.0215C14.5386 12.024 14.5345 12.0261 14.5321 12.0274ZM2.03209 17.0274L2.02906 17.029L2.02733 17.0321C2.02607 17.0345 2.02404 17.0386 2.02146 17.045C2.01026 17.0723 1.99113 17.1326 1.97491 17.2534C1.93949 17.5168 1.93751 17.8843 1.93751 18.5C1.93751 19.1158 1.93949 19.4833 1.97491 19.7466C1.99113 19.8674 2.01026 19.9279 2.02146 19.955C2.02404 19.9614 2.02607 19.9655 2.02733 19.9679L2.02906 19.971L2.03209 19.9726C2.03451 19.974 2.03866 19.976 2.04496 19.9785C2.07218 19.9898 2.13264 20.0089 2.25333 20.0251C2.51674 20.0605 2.88424 20.0625 3.50001 20.0625H6.00001C6.61577 20.0625 6.98327 20.0605 7.24668 20.0251C7.36737 20.0089 7.42782 19.9898 7.45504 19.9785C7.45823 19.9773 7.46301 19.9751 7.46301 19.9751L7.46792 19.9726L7.47095 19.971L7.47268 19.9679L7.4745 19.9643C7.47562 19.9619 7.47698 19.9589 7.47856 19.955C7.48976 19.9279 7.50887 19.8674 7.52511 19.7466C7.56052 19.4833 7.56251 19.1158 7.56251 18.5C7.56251 17.8843 7.56052 17.5168 7.52511 17.2534C7.50887 17.1326 7.48976 17.0723 7.47856 17.045C7.47597 17.0386 7.47394 17.0345 7.47268 17.0321L7.47095 17.029L7.46792 17.0274C7.46549 17.0261 7.46136 17.024 7.45504 17.0215C7.42782 17.0103 7.36737 16.9911 7.24668 16.9749C6.98327 16.9395 6.61577 16.9375 6.00001 16.9375H3.50001C2.88424 16.9375 2.51674 16.9395 2.25333 16.9749C2.13264 16.9911 2.07218 17.0103 2.04496 17.0215C2.03866 17.024 2.03451 17.0261 2.03209 17.0274ZM3.44408 15.0625H6.05593C6.59696 15.0625 7.09299 15.0624 7.49652 15.1166C7.94087 15.1764 8.41052 15.3169 8.79676 15.7033C9.18313 16.0895 9.32363 16.5591 9.38338 17.0035C9.43763 17.407 9.43763 17.903 9.43751 18.4441V18.556C9.43763 19.097 9.43763 19.593 9.38338 19.9965C9.32363 20.4409 9.18313 20.9105 8.79676 21.2968C8.41052 21.6831 7.94087 21.8236 7.49652 21.8834C7.09299 21.9376 6.59696 21.9376 6.05593 21.9375H3.44407C2.90305 21.9376 2.40701 21.9376 2.00349 21.8834C1.55914 21.8236 1.08949 21.6831 0.703205 21.2968C0.31693 20.9105 0.176368 20.4409 0.11663 19.9965C0.0623804 19.593 0.0624305 19.097 0.0625055 18.556V18.4441C0.0624305 17.903 0.0623804 17.407 0.11663 17.0035C0.176368 16.5591 0.31693 16.0895 0.703205 15.7033C1.08949 15.3169 1.55914 15.1764 2.00349 15.1166C2.40701 15.0624 2.90306 15.0625 3.44408 15.0625Z" fill="#fff"/>
</svg>
