<svg width="28" height="28" viewBox="0 0 28 28" fill="none" xmlns="http://www.w3.org/2000/svg">
<path d="M14.0005 0C6.27109 0 0.000488281 6.26269 0.000488281 13.9926C0.000488281 21.73 6.27109 28 14.0005 28C21.7341 28 27.9994 21.7299 27.9994 13.9926C27.9994 6.26269 21.7341 0 14.0005 0ZM14.9982 21.7826C14.673 22.072 14.2962 22.2174 13.8693 22.2174C13.4276 22.2174 13.0424 22.0746 12.7135 21.7884C12.3841 21.5027 12.2191 21.1027 12.2191 20.5889C12.2191 20.133 12.3788 19.7493 12.6972 19.4383C13.0155 19.1274 13.406 18.9719 13.8693 18.9719C14.3252 18.9719 14.7089 19.1274 15.0203 19.4383C15.3313 19.7493 15.4873 20.1329 15.4873 20.5889C15.4867 21.0954 15.3238 21.4933 14.9982 21.7826ZM19.0526 11.7311C18.8028 12.1944 18.5061 12.5939 18.1619 12.9307C17.8188 13.2674 17.2017 13.8335 16.311 14.6293C16.0654 14.8538 15.8677 15.0509 15.7197 15.2206C15.5716 15.3908 15.4609 15.5463 15.3887 15.6875C15.3159 15.8287 15.2601 15.97 15.2205 16.1112C15.181 16.2519 15.1215 16.5002 15.0408 16.8549C14.9038 17.6075 14.4732 17.9837 13.7496 17.9837C13.3733 17.9837 13.0571 17.8609 12.7994 17.6148C12.5427 17.3687 12.4146 17.0035 12.4146 16.5186C12.4146 15.911 12.509 15.3844 12.6971 14.9391C12.8842 14.4938 13.1346 14.1033 13.4455 13.7665C13.757 13.4297 14.1765 13.0302 14.7051 12.5669C15.1684 12.1617 15.503 11.856 15.7091 11.6499C15.9157 11.4433 16.0891 11.2136 16.2298 10.9606C16.3716 10.707 16.4412 10.4325 16.4412 10.1358C16.4412 9.55659 16.2267 9.06856 15.7956 8.67066C15.365 8.27276 14.8095 8.07352 14.1291 8.07352C13.3328 8.07352 12.7467 8.27431 12.3704 8.67591C11.9941 9.07751 11.6763 9.66882 11.4154 10.4504C11.1688 11.2684 10.7018 11.6773 10.0151 11.6773C9.60979 11.6773 9.26777 11.5345 8.98898 11.2488C8.7107 10.9632 8.57156 10.6538 8.57156 10.3208C8.57156 9.63348 8.79239 8.93675 9.23354 8.23107C9.67521 7.52539 10.3192 6.94089 11.1661 6.47815C12.0125 6.01489 13.0007 5.78297 14.1291 5.78297C15.1784 5.78297 16.1044 5.97689 16.9076 6.36429C17.7108 6.75111 18.3316 7.27765 18.7696 7.94378C19.207 8.60939 19.4262 9.33303 19.4262 10.1146C19.4273 10.7287 19.3024 11.2679 19.0526 11.7311Z" fill="#838383"/>
</svg>
