<svg width="37" height="37" viewBox="0 0 37 37" fill="none" xmlns="http://www.w3.org/2000/svg">
<g clip-path="url(#clip0_321_461)">
<path d="M27.4611 18.5C27.4625 20.6088 26.7197 22.6504 25.3634 24.2651C24.0072 25.8799 22.1246 26.9642 20.0473 27.3271C17.97 27.69 15.8313 27.3081 14.008 26.2487C12.1846 25.1894 10.7936 23.5205 10.08 21.5362L4.95459 25.6365C6.54831 28.666 9.11116 31.0742 12.2339 32.4766C15.3567 33.8789 18.8592 34.1944 22.1824 33.3729C25.5055 32.5513 28.4575 30.64 30.5671 27.9441C32.6766 25.2482 33.8221 21.9232 33.8205 18.5" fill="#00AC47"/>
<path d="M27.4608 18.5C27.4597 19.9257 27.1179 21.3304 26.4639 22.5972C25.8099 23.864 24.8627 24.9562 23.7012 25.7829L28.7683 29.8366C30.3572 28.406 31.628 26.6577 32.4982 24.7048C33.3685 22.7519 33.8189 20.638 33.8202 18.5" fill="#4285F4"/>
<path d="M9.53906 18.5C9.54128 17.4642 9.72429 16.4367 10.0798 15.4638L4.95441 11.3635C3.78901 13.5618 3.17969 16.012 3.17969 18.5C3.17969 20.9881 3.78901 23.4383 4.95441 25.6365L10.0798 21.5362C9.72429 20.5633 9.54128 19.5358 9.53906 18.5Z" fill="#FFBA00"/>
<path d="M18.5002 9.53907C20.3963 9.5396 22.2427 10.1455 23.7704 11.2686L28.4647 6.88721C26.7221 5.38473 24.6627 4.2952 22.4401 3.69992C20.2176 3.10464 17.8893 3.01898 15.629 3.44934C13.3687 3.8797 11.2347 4.81496 9.38643 6.18533C7.53812 7.5557 6.02316 9.32579 4.95459 11.3635L10.08 15.4638C10.7051 13.731 11.8486 12.2328 13.3552 11.1727C14.8617 10.1127 16.6581 9.54228 18.5002 9.53907Z" fill="#EA4435"/>
<path d="M33.8203 17.3438V18.5L31.2188 22.5469H19.0781V16.1875H32.6641C32.9707 16.1875 33.2648 16.3093 33.4817 16.5262C33.6985 16.743 33.8203 17.0371 33.8203 17.3438Z" fill="#4285F4"/>
</g>
<defs>
<clipPath id="clip0_321_461">
<rect width="37" height="37" fill="white"/>
</clipPath>
</defs>
</svg>
