<svg width="25" height="25" viewBox="0 0 25 25" fill="none" xmlns="http://www.w3.org/2000/svg">
<g clip-path="url(#clip0_305_662)">
<path fill-rule="evenodd" clip-rule="evenodd" d="M12.7896 1.69257L11.9173 1.69869L2.68433 8.00658L2.68989 9.3005L11.9229 15.4926L12.7841 15.4986L22.3011 9.3065L22.3066 8.00046L12.7896 1.69257ZM4.51873 8.64566L12.3646 3.28543L20.4517 8.64561L12.3645 13.9075L4.51873 8.64566ZM11.9228 19.3989L2.8009 13.2812H5.60617L12.3645 17.8137L19.3306 13.2812H22.1958L20.9463 14.0942C20.7378 14.0732 20.5264 14.0625 20.3125 14.0625C17.5375 14.0625 15.185 15.8709 14.3691 18.3736L12.784 19.4048L11.9228 19.3989ZM14.0695 20.6106L12.3645 21.72L5.60617 17.1875H2.8009L11.9228 23.3051L12.784 23.3111L14.3768 22.2748C14.2026 21.7476 14.0967 21.1894 14.0695 20.6106Z" fill="#5ABCFF"/>
<path fill-rule="evenodd" clip-rule="evenodd" d="M17.7083 16.415C18.4791 15.8998 19.3855 15.625 20.3125 15.625C21.5553 15.6266 22.7466 16.1209 23.6253 16.9997C24.5041 17.8784 24.9985 19.0697 25 20.3125C25 21.2395 24.7252 22.1459 24.21 22.9167C23.695 23.6877 22.9628 24.2884 22.1064 24.6431C21.2499 24.998 20.3074 25.0908 19.398 24.91C18.4888 24.7291 17.6535 24.2827 16.998 23.627C16.3424 22.9716 15.896 22.1363 15.715 21.227C15.5342 20.3177 15.6271 19.3752 15.9819 18.5186C16.3366 17.6622 16.9374 16.93 17.7083 16.415ZM20.3617 22.3791L23.1583 18.6505L21.9083 17.713L19.5953 20.7967L18.2274 19.7023L17.2513 20.9223L19.2488 22.5203L20.3617 22.3791Z" fill="#6BF893"/>
</g>
<defs>
<clipPath id="clip0_305_662">
<rect width="25" height="25" fill="white"/>
</clipPath>
</defs>
</svg>
