<svg width="34" height="62" viewBox="0 0 34 62" fill="none" xmlns="http://www.w3.org/2000/svg">
<g clip-path="url(#clip0_321_610)">
<path d="M4.72386 32H29.276C30.4976 32 31.488 31.0387 31.488 29.853V12.464C31.488 11.2783 30.4976 10.3169 29.276 10.3169H28.8511C28.7453 4.05974 23.4715 -1 16.9999 -1C10.5283 -1 5.25451 4.05974 5.1491 10.317H4.72425C3.5026 10.317 2.51221 11.2783 2.51221 12.464V29.8535C2.51221 31.0387 3.50222 32 4.72386 32ZM19.1488 21.2723V26.4842C19.1488 27.5344 18.2713 28.3862 17.1892 28.3862H16.8102C15.7281 28.3862 14.8505 27.5344 14.8505 26.4842V21.2723C13.7002 20.5749 12.932 19.3387 12.932 17.9251C12.932 15.745 14.7529 13.9772 16.9994 13.9772C19.2459 13.9772 21.0669 15.7446 21.0669 17.9251C21.0674 19.3387 20.2992 20.575 19.1488 21.2723ZM16.9999 3.56484C20.8776 3.56484 24.0374 6.57724 24.1428 10.317H9.85694C9.96242 6.57767 13.1221 3.56484 16.9999 3.56484Z" fill="#3E45FF"/>
</g>
<defs>
<clipPath id="clip0_321_610">
<rect width="34" height="62" fill="white"/>
</clipPath>
</defs>
</svg>
