<svg width="29" height="29" viewBox="0 0 29 29" fill="none" xmlns="http://www.w3.org/2000/svg">
<path d="M29 4.25437H15.8684L14.4997 5.62276L13.131 4.25406H0V24.7453H13.1313L14.5 23.3772L15.8687 24.7459H29V4.25437ZM13.6521 23.1754H1.57055V5.82461H13.6521V23.1754ZM27.4295 23.1754H15.3476V5.82461H27.4291V23.1754H27.4295Z" fill="#5ABCFF"/>
<path d="M12.0293 8.78006H3.33984V10.3506H12.0293V8.78006Z" fill="#5ABCFF"/>
<path d="M12.0293 13.3004H3.33984V14.871H12.0293V13.3004Z" fill="#5ABCFF"/>
<path d="M12.0293 18.0977H3.33984V19.668H12.0293V18.0977Z" fill="#5ABCFF"/>
<path d="M26.0058 8.78006H17.3164V10.3506H26.0058V8.78006Z" fill="#5ABCFF"/>
<path d="M26.0058 13.3004H17.3164V14.871H26.0058V13.3004Z" fill="#5ABCFF"/>
<path d="M26.0058 18.0977H17.3164V19.668H26.0058V18.0977Z" fill="#5ABCFF"/>
</svg>
