<svg width="18" height="12" viewBox="0 0 18 12" fill="none" xmlns="http://www.w3.org/2000/svg">
<path d="M17.8514 5.55132C17.6914 5.33613 13.8771 0.281494 9 0.281494C4.12288 0.281494 0.308581 5.33613 0.148574 5.55132C-0.0495246 5.81772 -0.0495246 6.18251 0.148574 6.4489C0.308581 6.66409 4.12288 11.7187 9 11.7187C13.8771 11.7187 17.6914 6.66409 17.8514 6.4489C18.0495 6.18257 18.0495 5.81772 17.8514 5.55132ZM9 9.01215C7.33915 9.01215 5.98797 7.66096 5.98797 6.00011C5.98797 4.3392 7.33915 2.98802 9 2.98802C10.6609 2.98802 12.0121 4.3392 12.0121 6.00011C12.0121 7.66096 10.6608 9.01215 9 9.01215Z" fill="#7B7B7B"/>
</svg>
