<svg width="27" height="27" viewBox="0 0 27 27" fill="none" xmlns="http://www.w3.org/2000/svg">
<g clip-path="url(#clip0_305_650)">
<rect width="20.7732" height="20.7732" transform="translate(0 7.16934) rotate(-20.1894)" fill="white"/>
<path d="M21.6388 9.5872L20.9667 7.75938C20.7192 7.08636 19.973 6.74146 19.3 6.98891L5.89598 11.9178C5.22395 12.1649 4.47647 11.8194 4.22935 11.1474C3.98223 10.4753 4.32778 9.72785 4.99982 9.48073L18.4039 4.55181C19.0768 4.30436 19.4218 3.55812 19.1743 2.88518C18.9269 2.21223 18.1806 1.86726 17.5077 2.11471L4.10365 7.04363C2.08779 7.7849 1.05099 10.0277 1.79225 12.0435L2.24033 13.2621L5.825 23.0105C6.31994 24.3564 7.81238 25.0463 9.15827 24.5514L23.7809 19.1744C24.4538 18.927 24.7988 18.1808 24.5513 17.5078L23.8792 15.68C24.5522 15.4325 24.8972 14.6863 24.6497 14.0133L23.3054 10.3577C23.0579 9.68465 22.3117 9.33975 21.6388 9.5872ZM21.3793 14.5243C20.7063 14.7717 19.9601 14.4268 19.7126 13.7538C19.4651 13.0808 19.8101 12.3346 20.4831 12.0872C21.156 11.8397 21.9022 12.1846 22.1497 12.8576C22.3972 13.5306 22.0522 14.2768 21.3793 14.5243Z" fill="#5ABCFF"/>
</g>
<defs>
<clipPath id="clip0_305_650">
<rect width="20.7732" height="20.7732" fill="white" transform="translate(0 7.16934) rotate(-20.1894)"/>
</clipPath>
</defs>
</svg>
