<svg width="21" height="21" viewBox="0 0 21 21" fill="none" xmlns="http://www.w3.org/2000/svg">
<path d="M9.70321 6.27107C9.56353 6.08224 9.46912 5.85733 9.41864 5.59701L8.18066 5.73407C8.27508 6.37599 8.49344 6.87236 8.83505 7.22447C9.17602 7.57659 9.61994 7.78706 10.1674 7.85524V8.74436H10.8552V7.8303C11.4716 7.73914 11.9529 7.4913 12.2997 7.08742C12.6453 6.68349 12.819 6.18647 12.819 5.59701C12.819 5.06919 12.6813 4.63642 12.4059 4.29939C12.1305 3.96236 11.6139 3.68764 10.8552 3.47584V1.5645C11.1621 1.70156 11.3516 1.96187 11.4244 2.34609L12.6243 2.18477C12.5423 1.69629 12.3528 1.30616 12.0552 1.01434C11.7581 0.723214 11.3588 0.546171 10.8559 0.4839V0H10.1681V0.4839C9.62452 0.539657 9.18845 0.7488 8.86128 1.11206C8.53411 1.47596 8.37082 1.92446 8.37082 2.45884C8.37082 2.98667 8.51508 3.43581 8.80488 3.80563C9.09404 4.17609 9.54845 4.45213 10.1681 4.63376V6.68151C9.99695 6.59696 9.84219 6.45994 9.70321 6.27107ZM10.8552 4.84363C11.1398 4.92823 11.3444 5.04951 11.4696 5.20753C11.5942 5.3649 11.6565 5.55373 11.6565 5.77209C11.6565 6.01599 11.5824 6.22843 11.4336 6.4101C11.2847 6.59109 11.0919 6.70384 10.8546 6.74974V4.84363H10.8552ZM9.70779 2.8818C9.60682 2.7336 9.55633 2.57297 9.55633 2.40051C9.55633 2.21169 9.61205 2.03923 9.72223 1.8825C9.83306 1.72646 9.98191 1.61563 10.1681 1.5507V3.24176C9.96219 3.14931 9.80876 3.02931 9.70779 2.8818Z" fill="#5ABCFF"/>
<path d="M20.9911 20.998V19.6866L1.34576 19.6886L1.32022 0.0183411L0.00878906 0.0196696L0.0357033 21L20.9911 20.998Z" fill="#5ABCFF"/>
<path d="M4.05786 16.576L5.13448 17.3255L8.26086 12.832L14.4159 17.0081L18.7769 9.73776L20.5814 10.9626L20.9912 5.33804L15.9148 7.7956L17.6898 9.0001L14.0047 15.1447L7.92383 11.019L4.05786 16.576Z" fill="#5ABCFF"/>
</svg>
