<svg width="28" height="28" viewBox="0 0 28 28" fill="none" xmlns="http://www.w3.org/2000/svg">
<path d="M4.7222 3.51401C7.27957 1.24514 10.5812 -0.00536965 14 1.73323e-05C21.7322 1.73323e-05 28 6.26781 28 14C28.0045 16.8615 27.1281 19.655 25.4898 22.001L21.7 14H25.2C25.2 11.7731 24.5362 9.59674 23.2934 7.74894C22.0505 5.90114 20.285 4.46578 18.2224 3.62623C16.1598 2.78668 13.8938 2.58106 11.7138 3.03562C9.53378 3.49019 7.53877 4.58431 5.9836 6.17821L4.7236 3.51541L4.7222 3.51401ZM23.2778 24.486C20.7204 26.7549 17.4188 28.0054 14 28C6.2678 28 0 21.7322 0 14C0 11.025 0.928199 8.26701 2.5102 5.99901L6.3 14H2.8C2.79996 16.2269 3.46377 18.4033 4.70663 20.2511C5.94949 22.0989 7.71498 23.5342 9.77756 24.3738C11.8401 25.2133 14.1062 25.4189 16.2862 24.9644C18.4662 24.5098 20.4612 23.4157 22.0164 21.8218L23.2764 24.4846L23.2778 24.486ZM15.4 16.149H19.6V18.949H15.4V21.749H12.6V18.949H8.39999V16.149H12.6V14.749H8.39999V11.949H12.0204L9.04959 8.97961L11.032 7.00001L14 9.96941L16.9694 7.00001L18.9504 8.97961L15.9796 11.9504H19.6V14.7504H15.4V16.1504V16.149Z" fill="#838383"/>
</svg>
