<svg width="34" height="39" viewBox="0 0 34 39" fill="none" xmlns="http://www.w3.org/2000/svg">
<path d="M17.1992 23.0984H17.1563L15.5157 21.218C16.3087 21.5026 17.135 21.6746 17.9919 21.6746C18.8498 21.6746 19.6747 21.5055 20.4662 21.2194L18.8257 23.0984H18.7856L22.8054 32.8198L26.4786 27.9418L30.5515 31.0052L33.1075 27.1656C30.6931 24.1022 26.8901 21.3684 22.4087 20.2329C25.6472 18.0535 27.8791 13.7565 27.8791 9.88788C27.8789 4.42682 23.4501 0 17.9919 0C12.5338 0 8.10646 4.42682 8.10646 9.88764C8.10646 13.7563 10.3362 18.0532 13.5754 20.2326C5.83148 22.1969 0.0917969 28.919 0.0917969 33.9024C0.0917969 36.8463 9.04007 38.3168 17.9891 38.3136L12.9774 33.3042L17.1992 23.0984Z" fill="#3E45FF"/>
</svg>
